<svg width="64" height="64" viewBox="0 0 64 64" fill="none" xmlns="http://www.w3.org/2000/svg">
<g clip-path="url(#clip0_1_2)">
<path d="M32 56C25.3333 56 19.6667 53.6667 15 49C10.3333 44.3333 8 38.6667 8 32C8 25.3333 10.3333 19.6667 15 15C19.6667 10.3333 25.3333 8 32 8C32.6222 8 33.2333 8.02222 33.8333 8.06667C34.4333 8.11111 35.0222 8.17778 35.6 8.26667C33.7778 9.55556 32.3222 11.2333 31.2333 13.3C30.1444 15.3667 29.6 17.6 29.6 20C29.6 24 31 27.4 33.8 30.2C36.6 33 40 34.4 44 34.4C46.4444 34.4 48.6889 33.8556 50.7333 32.7667C52.7778 31.6778 54.4444 30.2222 55.7333 28.4C55.8222 28.9778 55.8889 29.5667 55.9333 30.1667C55.9778 30.7667 56 31.3778 56 32C56 38.6667 53.6667 44.3333 49 49C44.3333 53.6667 38.6667 56 32 56ZM32 50.6667C35.9111 50.6667 39.4222 49.5889 42.5333 47.4333C45.6444 45.2778 47.9111 42.4667 49.3333 39C48.4444 39.2222 47.5556 39.4 46.6667 39.5333C45.7778 39.6667 44.8889 39.7333 44 39.7333C38.5333 39.7333 33.8778 37.8111 30.0333 33.9667C26.1889 30.1222 24.2667 25.4667 24.2667 20C24.2667 19.1111 24.3333 18.2222 24.4667 17.3333C24.6 16.4444 24.7778 15.5556 25 14.6667C21.5333 16.0889 18.7222 18.3556 16.5667 21.4667C14.4111 24.5778 13.3333 28.0889 13.3333 32C13.3333 37.1556 15.1556 41.5556 18.8 45.2C22.4444 48.8444 26.8444 50.6667 32 50.6667Z" fill="#202124"/>
</g>
<defs>
<clipPath id="clip0_1_2">
<rect width="64" height="64" fill="white"/>
</clipPath>
</defs>
</svg>
