<svg width="64" height="64" viewBox="0 0 64 64" fill="none" xmlns="http://www.w3.org/2000/svg">
<g clip-path="url(#clip0_1_11)">
<path d="M32 40C34.2222 40 36.1111 39.2222 37.6667 37.6667C39.2222 36.1111 40 34.2222 40 32C40 29.7778 39.2222 27.8889 37.6667 26.3333C36.1111 24.7778 34.2222 24 32 24C29.7778 24 27.8889 24.7778 26.3333 26.3333C24.7778 27.8889 24 29.7778 24 32C24 34.2222 24.7778 36.1111 26.3333 37.6667C27.8889 39.2222 29.7778 40 32 40ZM32 45.3333C28.3111 45.3333 25.1667 44.0333 22.5667 41.4333C19.9667 38.8333 18.6667 35.6889 18.6667 32C18.6667 28.3111 19.9667 25.1667 22.5667 22.5667C25.1667 19.9667 28.3111 18.6667 32 18.6667C35.6889 18.6667 38.8333 19.9667 41.4333 22.5667C44.0333 25.1667 45.3333 28.3111 45.3333 32C45.3333 35.6889 44.0333 38.8333 41.4333 41.4333C38.8333 44.0333 35.6889 45.3333 32 45.3333ZM13.3333 34.6667H2.66666V29.3333H13.3333V34.6667ZM61.3333 34.6667H50.6667V29.3333H61.3333V34.6667ZM29.3333 13.3333V2.66667H34.6667V13.3333H29.3333ZM29.3333 61.3333V50.6667H34.6667V61.3333H29.3333ZM17.0667 20.6667L10.3333 14.2L14.1333 10.2667L20.5333 16.9333L17.0667 20.6667ZM49.8667 53.7333L43.4 47L46.9333 43.3333L53.6667 49.8L49.8667 53.7333ZM43.3333 17.0667L49.8 10.3333L53.7333 14.1333L47.0667 20.5333L43.3333 17.0667ZM10.2667 49.8667L17 43.4L20.6667 46.9333L14.2 53.6667L10.2667 49.8667Z" fill="white"/>
</g>
<defs>
<clipPath id="clip0_1_11">
<rect width="64" height="64" fill="white"/>
</clipPath>
</defs>
</svg>
